# xmcd CD database file
#
# Track frame offsets:
#	150
#	22117
#	51055
#	63195
#	110545
#	131025
#	158445
#	175237
#	203050
#	239117
#
# Disc length: 4195 seconds
#
# Revision: 0
# Processed by: cddbd v1.5.2PL0 Copyright (c) Steve Scherf et al.
# Submitted via: CDex 1.51
#
DISCID=8710610a
DTITLE=Luther Tucker and The Ford Blues Band - Luther Tucker and The Ford Blues Band
DYEAR=1995
DGENRE=Blues
TTITLE0=L.T. Shuffle
TTITLE1=Mean Old World
TTITLE2=Playboy
TTITLE3=Luther's Lament
TTITLE4=Little Bitty Man
TTITLE5=Sad and Lonely
TTITLE6=Cha-Cha-La Tucker
TTITLE7=Worried Life Blues
TTITLE8=Cleo and Back Again
TTITLE9=Radio Interview With Luther
EXTD=YEAR: 1995
EXTT0=
EXTT1=
EXTT2=
EXTT3=
EXTT4=
EXTT5=
EXTT6=
EXTT7=
EXTT8=
EXTT9=
PLAYORDER=
